<svg xmlns="http://www.w3.org/2000/svg" width="490" height="430" viewBox="0 0 490 430" role="img" aria-labelledby="title desc">
<title id="title">Profile information for Nihaal N O</title>
<desc id="desc">A terminal-style developer profile card.</desc>
<style>
  .bg { fill: #0d1117; } .frame { fill:none; stroke:#30363d; } .bar { fill:#161b22; }
  text { font-family: ui-monospace, SFMono-Regular, Menlo, Consolas, monospace; }
  .header { fill:#c9d1d9; font-size:20px; font-weight:700; }
  .handle,.key,.sep { fill:#58a6ff; } .handle { font-size:12px; }
  .key,.sep,.value { font-size:12px; } .value { fill:#c9d1d9; }
  .line { opacity:0; animation:show 6.4s ease-in-out infinite; }
  .footer { fill:#8b949e; font-size:11px; } .cursor { fill:#58a6ff; animation:blink 1s step-end infinite; }
  @keyframes show { 0%,7% {opacity:0;transform:translateY(4px)} 13%,87% {opacity:1;transform:none} 95%,100% {opacity:0} }
  @keyframes blink { 50% {opacity:0} }
</style>
<rect class="bg" width="100%" height="100%" rx="12"/><rect class="frame" x=".5" y=".5" width="489" height="429" rx="11.5"/>
<rect class="bar" x="1" y="1" width="488" height="30" rx="11"/>
<circle cx="16" cy="16" r="4" fill="#f85149"/><circle cx="29" cy="16" r="4" fill="#d29922"/><circle cx="42" cy="16" r="4" fill="#3fb950"/>
<text class="header" x="26" y="66">Nihaal N O</text><text class="handle" x="26" y="88">github.com/NihaalNO</text>
<g class="line" style="animation-delay:0.45s"><text class="key" x="26" y="119">name     </text><text class="sep" x="121" y="119">:</text><text class="value" x="140" y="119">Nihaal N O</text></g><g class="line" style="animation-delay:0.67s"><text class="key" x="26" y="149">role     </text><text class="sep" x="121" y="149">:</text><text class="value" x="140" y="149">CS Engineering Student</text></g><g class="line" style="animation-delay:0.89s"><text class="key" x="26" y="179">location </text><text class="sep" x="121" y="179">:</text><text class="value" x="140" y="179">India</text></g><g class="line" style="animation-delay:1.11s"><text class="key" x="26" y="209">education</text><text class="sep" x="121" y="209">:</text><text class="value" x="140" y="209">B.E. CSE · PESITM · 2024–2028</text></g><g class="line" style="animation-delay:1.33s"><text class="key" x="26" y="239">focus    </text><text class="sep" x="121" y="239">:</text><text class="value" x="140" y="239">AI/ML · Full-stack · Data</text></g><g class="line" style="animation-delay:1.55s"><text class="key" x="26" y="269">stack    </text><text class="sep" x="121" y="269">:</text><text class="value" x="140" y="269">Python · TypeScript · Next.js · Express · PostgreSQL</text></g><g class="line" style="animation-delay:1.77s"><text class="key" x="26" y="299">projects </text><text class="sep" x="121" y="299">:</text><text class="value" x="140" y="299">SmartSQL · Quantalab · Visual-F1</text></g><g class="line" style="animation-delay:1.99s"><text class="key" x="26" y="329">status   </text><text class="sep" x="121" y="329">:</text><text class="value" x="140" y="329">Building practical AI developer tools</text></g>
<line x1="26" y1="370" x2="464" y2="370" stroke="#21262d"/>
<text class="footer" x="26" y="399">$ open to collaboration <tspan class="cursor">▋</tspan></text>
</svg>